<svg width="393" height="34" viewBox="0 0 393 34" fill="none" xmlns="http://www.w3.org/2000/svg">
<path d="M57.2727 0H5.72727C2.57727 0 0 2.55 0 5.66667V28.3333C0 31.45 2.57727 34 5.72727 34H57.2727C60.4227 34 63 31.45 63 28.3333V5.66667C63 2.55 60.4227 0 57.2727 0ZM28.6364 19.8333H20.0455V28.3333H14.3182V19.8333H5.72727V14.1667H14.3182V5.66667H20.0455V14.1667H28.6364V19.8333ZM41.5227 25.5C39.1459 25.5 37.2273 23.6017 37.2273 21.25C37.2273 18.8983 39.1459 17 41.5227 17C43.8995 17 45.8182 18.8983 45.8182 21.25C45.8182 23.6017 43.8995 25.5 41.5227 25.5ZM52.9773 17C50.6005 17 48.6818 15.1017 48.6818 12.75C48.6818 10.3983 50.6005 8.5 52.9773 8.5C55.3541 8.5 57.2727 10.3983 57.2727 12.75C57.2727 15.1017 55.3541 17 52.9773 17Z" fill="black"/>
<path d="M98.496 10.48L94.872 14.128H85.512V21.472H92.904V19.48H90.12L86.76 16.12H97.656V21.832L94.344 25.12H84.12L80.76 21.76V13.84L84.12 10.48H98.496ZM97.344 10.96H84.312L81.24 14.032V21.568L84.312 24.64H94.152L97.176 21.616V16.6H87.912L90.312 19H93.384V21.952H85.032V13.648H94.68L97.344 10.96ZM120.22 25.12H115.444V21.04H107.332V25.12H102.58V13.84L105.94 10.48H116.86L120.22 13.84V25.12ZM119.74 24.64V14.032L116.668 10.96H106.132L103.06 14.032V24.64H106.852V20.56H115.924V24.64H119.74ZM115.924 17.92H106.852V13.648H115.924V17.92ZM115.444 17.44V14.128H107.332V17.44H115.444ZM148.175 25.096H143.423V16.552L138.479 23.344H135.479L130.559 16.552V25.096H125.807V10.48H131.015L136.991 18.736L143.087 10.48H148.175V25.096ZM147.695 24.616V10.96H143.183C142.495 11.936 140.431 14.8 136.991 19.552L130.751 10.96H126.287V24.616H130.079V15.088L135.719 22.864H138.239L143.903 15.064V24.616H147.695ZM171.527 10.48L167.903 14.128H158.543V16.12H169.463L166.103 19.48H158.543V21.472H171.023L167.375 25.12H153.791V10.48H171.527ZM170.375 10.96H154.271V24.64H167.183L169.871 21.952H158.063V19H165.911L168.311 16.6H158.063V13.648H167.711L170.375 10.96ZM193.552 21.64L190.336 24.856H178.552L175.336 21.64V13.936L178.552 10.72H190.336L193.552 13.936V21.64ZM189.28 21.712V13.864H179.608V21.712H189.28ZM216.828 10.72L209.148 24.856H205.164L197.484 10.72H201.852L207.156 20.392L212.46 10.72H216.828ZM239.131 10.72L235.987 13.888H226.483V16.36H237.067L234.187 19.24H226.483V21.712H238.627L235.459 24.88H222.211V10.72H239.131ZM262.219 24.856H257.947V21.4L256.651 20.128H248.491V24.856L244.219 27.304V10.72H259.003L262.219 15.064L259.771 18.352L262.219 20.8V24.856ZM257.827 15.352L256.699 13.864H248.491V16.912H256.699L257.827 15.352ZM284.564 21.712L281.396 24.88H268.148V10.72L272.42 8.248V21.712H284.564ZM306.825 21.64L303.609 24.856H291.825L288.609 21.64V13.936L291.825 10.72H303.609L306.825 13.936V21.64ZM302.553 21.712V13.864H292.881V21.712H302.553ZM329.887 24.88H325.591V20.8H316.999V24.88L312.727 27.304V13.936L315.943 10.72H326.671L329.887 13.936V24.88ZM325.591 17.68V13.888H316.999V17.68H325.591ZM354.122 17.8L350.114 24.88H335.93V10.72H350.114L354.122 17.8ZM349.49 17.8L347.282 13.888H340.202V21.712H347.282L349.49 17.8Z" fill="black"/>
</svg>
